<?xml version="1.0" encoding="iso-8859-1"?>
<!-- Generator: Adobe Illustrator 19.0.0, SVG Export Plug-In . SVG Version: 6.00 Build 0)  -->
<svg fill="#FFFFFF" xmlns="http://www.w3.org/2000/svg" xmlns:xlink="http://www.w3.org/1999/xlink" version="1.1" id="Layer_1" x="0px" y="0px" viewBox="0 0 512 512" style="enable-background:new 0 0 512 512;" xml:space="preserve" width="512" height="512">
<g>
	<path d="M391,60c-18.706,0-36.202,4.677-51.998,12.345C312.008,28.052,263.485,0,211,0C128.295,0,61,68.295,61,151   c0,0.511,0.077,1,0.082,1.509C26.854,159.448,0,189.756,0,226c0,41.353,34.647,75,76,75h315c66.167,0,121-53.833,121-120   S457.167,60,391,60z"/>
	<polygon points="322.65,512 303.607,421 367.577,421 334.149,331 177.305,331 190.8,361 127.27,361  "/>
</g>















</svg>
